# xmcd
#
# Track frame offsets: 
#        150
#        23067
#        51081
#        80667
#        102398
#        123577
#
# Disc length: 2035 seconds
#
# Revision: 5
# Processed by: cddbd v1.5.2PL0 Copyright (c) Steve Scherf et al.
# Submitted via: ExactAudioCopyFreeDBPlugin 1.0
#
DISCID=4907f106
DTITLE=Dr. Arnd Stein - Wellnessmusik
DYEAR=2004
DGENRE=Meditative
TTITLE0=Sunrise
TTITLE1=Green Hill
TTITLE2=Strandspaziergang
TTITLE3=Abendstimmung
TTITLE4=Silence
TTITLE5=Südwind
EXTD=YEAR: 2004
EXTT0=
EXTT1=
EXTT2=
EXTT3=
EXTT4=
EXTT5=
PLAYORDER=
